<?xml version="1.0" encoding="iso-8859-1"?>
<!-- Generator: Adobe Illustrator 19.0.0, SVG Export Plug-In . SVG Version: 6.00 Build 0)  -->
<svg version="1.1" id="Capa_1" xmlns="http://www.w3.org/2000/svg" xmlns:xlink="http://www.w3.org/1999/xlink" x="0px" y="0px"
	 viewBox="0 0 60 60" style="enable-background:new 0 0 60 60;" xml:space="preserve">
<g>
	<g>
		<path d="M55.502,1.5H4.498C2.018,1.5,0,3.518,0,5.999V38.5v4.501c0,2.48,2.018,4.499,4.498,4.499h17.856
			c0.142,1.752-0.618,3.482-2.023,4.472l-1.801,1.27c-0.115,0.08-0.211,0.177-0.29,0.285C16.985,53.658,16,54.711,16,56
			c0,1.378,1.121,2.5,2.5,2.5h23c1.379,0,2.5-1.122,2.5-2.5c0-1.289-0.984-2.341-2.239-2.474c-0.078-0.106-0.173-0.202-0.285-0.281
			l-1.804-1.271c-1.406-0.991-2.167-2.721-2.025-4.474h17.855c2.48,0,4.498-2.018,4.498-4.499V38.5V5.999
			C60,3.518,57.982,1.5,55.502,1.5z M2,5.999C2,4.621,3.121,3.5,4.498,3.5h51.004C56.879,3.5,58,4.621,58,5.999V36.5H2V5.999z
			 M41.5,56.5h-23c-0.271,0-0.5-0.229-0.5-0.5s0.229-0.5,0.5-0.5h0.726h21.548H41.5c0.271,0,0.5,0.229,0.5,0.5
			S41.771,56.5,41.5,56.5z M35.642,47.502c-0.133,2.329,0.883,4.617,2.729,5.998h-16.74c1.846-1.381,2.862-3.67,2.729-6
			L35.642,47.502z M58,43.001c0,1.378-1.121,2.499-2.498,2.499H38.058H21.943H4.498C3.121,45.5,2,44.379,2,43.001V38.5h56V43.001z"
			/>
		<path d="M5,11.5c0.256,0,0.512-0.098,0.707-0.293l4-4c0.391-0.391,0.391-1.023,0-1.414s-1.023-0.391-1.414,0l-4,4
			c-0.391,0.391-0.391,1.023,0,1.414C4.488,11.402,4.744,11.5,5,11.5z"/>
		<path d="M5,16.5c0.256,0,0.512-0.098,0.707-0.293l2-2c0.391-0.391,0.391-1.023,0-1.414s-1.023-0.391-1.414,0l-2,2
			c-0.391,0.391-0.391,1.023,0,1.414C4.488,16.402,4.744,16.5,5,16.5z"/>
		<path d="M8.29,10.79C8.109,10.98,8,11.24,8,11.5s0.109,0.52,0.29,0.71C8.479,12.39,8.729,12.5,9,12.5c0.26,0,0.52-0.11,0.71-0.29
			C9.89,12.02,10,11.76,10,11.5s-0.11-0.52-0.29-0.71C9.33,10.42,8.67,10.42,8.29,10.79z"/>
		<path d="M10.293,10.207C10.488,10.402,10.744,10.5,11,10.5s0.512-0.098,0.707-0.293l3-3c0.391-0.391,0.391-1.023,0-1.414
			s-1.023-0.391-1.414,0l-3,3C9.902,9.184,9.902,9.816,10.293,10.207z"/>
		<path d="M13.293,10.793l-9,9c-0.391,0.391-0.391,1.023,0,1.414C4.488,21.402,4.744,21.5,5,21.5s0.512-0.098,0.707-0.293l9-9
			c0.391-0.391,0.391-1.023,0-1.414S13.684,10.402,13.293,10.793z"/>
		<path d="M15.29,8.79C15.109,8.98,15,9.23,15,9.5s0.109,0.52,0.29,0.71c0.189,0.18,0.439,0.29,0.71,0.29
			c0.27,0,0.52-0.11,0.71-0.29C16.89,10.02,17,9.77,17,9.5s-0.11-0.52-0.29-0.71C16.34,8.42,15.66,8.42,15.29,8.79z"/>
		<path d="M18.293,5.793l-1,1c-0.391,0.391-0.391,1.023,0,1.414C17.488,8.402,17.744,8.5,18,8.5s0.512-0.098,0.707-0.293l1-1
			c0.391-0.391,0.391-1.023,0-1.414S18.684,5.402,18.293,5.793z"/>
	</g>
</g>
<g>
</g>
<g>
</g>
<g>
</g>
<g>
</g>
<g>
</g>
<g>
</g>
<g>
</g>
<g>
</g>
<g>
</g>
<g>
</g>
<g>
</g>
<g>
</g>
<g>
</g>
<g>
</g>
<g>
</g>
</svg>
