<?xml version="1.0" encoding="iso-8859-1"?>
<!-- Generator: Adobe Illustrator 19.0.0, SVG Export Plug-In . SVG Version: 6.00 Build 0)  -->
<svg version="1.1" id="Capa_1" xmlns="http://www.w3.org/2000/svg" xmlns:xlink="http://www.w3.org/1999/xlink" x="0px" y="0px"
	 viewBox="0 0 60 60" style="enable-background:new 0 0 60 60;" xml:space="preserve">
<g>
	<g>
		<path d="M12,23c0.256,0,0.512-0.098,0.707-0.293l4-4c0.391-0.391,0.391-1.023,0-1.414s-1.023-0.391-1.414,0l-4,4
			c-0.391,0.391-0.391,1.023,0,1.414C11.488,22.902,11.744,23,12,23z"/>
		<path d="M12,28c0.256,0,0.512-0.098,0.707-0.293l2-2c0.391-0.391,0.391-1.023,0-1.414s-1.023-0.391-1.414,0l-2,2
			c-0.391,0.391-0.391,1.023,0,1.414C11.488,27.902,11.744,28,12,28z"/>
		<path d="M15.29,22.29C15.109,22.48,15,22.74,15,23s0.109,0.52,0.29,0.71C15.479,23.89,15.74,24,16,24s0.52-0.11,0.71-0.29
			C16.89,23.52,17,23.26,17,23s-0.11-0.52-0.29-0.71C16.34,21.92,15.649,21.93,15.29,22.29z"/>
		<path d="M17.293,21.707C17.488,21.902,17.744,22,18,22s0.512-0.098,0.707-0.293l3-3c0.391-0.391,0.391-1.023,0-1.414
			s-1.023-0.391-1.414,0l-3,3C16.902,20.684,16.902,21.316,17.293,21.707z"/>
		<path d="M12,33c0.256,0,0.512-0.098,0.707-0.293l9-9c0.391-0.391,0.391-1.023,0-1.414s-1.023-0.391-1.414,0l-9,9
			c-0.391,0.391-0.391,1.023,0,1.414C11.488,32.902,11.744,33,12,33z"/>
		<path d="M22.29,21.71C22.479,21.89,22.74,22,23,22s0.52-0.11,0.71-0.29C23.89,21.52,24,21.26,24,21c0-0.27-0.11-0.52-0.29-0.71
			c-0.37-0.37-1.04-0.37-1.42,0C22.109,20.48,22,20.74,22,21S22.109,21.52,22.29,21.71z"/>
		<path d="M25,20c0.256,0,0.512-0.098,0.707-0.293l1-1c0.391-0.391,0.391-1.023,0-1.414s-1.023-0.391-1.414,0l-1,1
			c-0.391,0.391-0.391,1.023,0,1.414C24.488,19.902,24.744,20,25,20z"/>
		<path d="M58.422,45H57V13.067C57,10.824,55.176,9,52.934,9H7.066C4.824,9,3,10.824,3,13.067V45H1.578C0.708,45,0,45.708,0,46.578
			v2.844C0,50.292,0.708,51,1.578,51h56.844C59.292,51,60,50.292,60,49.422v-2.844C60,45.708,59.292,45,58.422,45z M5,13.067
			C5,11.927,5.927,11,7.066,11h45.867C54.073,11,55,11.927,55,13.067V45H35.203l-0.237,0.663C34.905,45.831,34.738,46,34.5,46h-8
			c-0.238,0-0.405-0.169-0.466-0.337L25.797,45H5V13.067z M58,49H2v-2h1h21.509c0.464,0.617,1.198,1,1.991,1h8
			c0.793,0,1.527-0.383,1.991-1H57h1V49z"/>
		<path d="M54,12H6v32h48V12z M52,42H8V14h44V42z"/>
	</g>
</g>
<g>
</g>
<g>
</g>
<g>
</g>
<g>
</g>
<g>
</g>
<g>
</g>
<g>
</g>
<g>
</g>
<g>
</g>
<g>
</g>
<g>
</g>
<g>
</g>
<g>
</g>
<g>
</g>
<g>
</g>
</svg>
