<?xml version="1.0" encoding="iso-8859-1"?>
<!-- Generator: Adobe Illustrator 16.0.0, SVG Export Plug-In . SVG Version: 6.00 Build 0)  -->
<!DOCTYPE svg PUBLIC "-//W3C//DTD SVG 1.1//EN" "http://www.w3.org/Graphics/SVG/1.1/DTD/svg11.dtd">
<svg version="1.1" id="Capa_1" xmlns="http://www.w3.org/2000/svg" xmlns:xlink="http://www.w3.org/1999/xlink" x="0px" y="0px"
	 width="40.002px" height="40.002px" viewBox="0 0 40.002 40.002" style="enable-background:new 0 0 40.002 40.002;"
	 xml:space="preserve">
<g>
	<path d="M18.681,20.307h1.833v0.172h-1.833V20.307z M17.535,19.006c0-0.191-0.155-0.346-0.346-0.346s-0.346,0.154-0.346,0.346
		c0,0.192,0.155,0.346,0.346,0.346S17.535,19.198,17.535,19.006z M28.109,24.064c-0.463-1.342-0.9-2.606-1.196-3.758h-5.53v-2.601
		h5.271c0.122-3.306,1.643-11.87,1.667-12.046l-0.009-4.998c0-0.133-0.055-0.26-0.147-0.354c-0.094-0.093-0.212-0.153-0.354-0.146
		l-2.417,0.005c-0.275,0.001-0.5,0.225-0.498,0.501l0.009,4.792c-1.841,0.427-3.663,0.644-5.422,0.644
		c-2.177,0-3.697-0.338-4.328-0.509l-0.094-5.104C15.057,0.219,14.833,0,14.562,0c0,0,0,0-0.001,0l-2.328,0.005
		c-0.27,0.001-0.491,0.215-0.499,0.484c-0.005,0.164-0.12,4.018,0.012,5.348c0.132,1.324,0.475,3.152,0.838,5.09
		c0.461,2.46,0.933,4.987,1.038,6.78h4.495v-0.456c0-0.155,0.126-0.282,0.282-0.282h2.397c0.134,0,0.246,0.094,0.274,0.219v3.637
		c-0.029,0.125-0.141,0.219-0.274,0.219h-2.397c-0.156,0-0.282-0.127-0.282-0.28v-0.457h-4.731
		c-1.409,3.916-4.143,15.987-4.259,16.5c-0.042,0.189,0.028,0.389,0.181,0.508c0.154,0.117,0.362,0.138,0.535,0.049
		c0.552-0.282,1.208-0.426,1.95-0.426c2.345,0,4.784,1.416,4.788,1.414c1.552,1.097,3.382,1.65,5.439,1.65
		c4.473,0,8.474-2.594,8.642-2.705c0.146-0.094,0.229-0.258,0.227-0.432C30.745,31.688,29.283,27.46,28.109,24.064z M20.342,19.006
		c0-0.191-0.155-0.346-0.346-0.346s-0.346,0.154-0.346,0.346c0,0.192,0.155,0.346,0.346,0.346S20.342,19.198,20.342,19.006z
		 M18.247,19.006c0,0.191,0.155,0.346,0.346,0.346c0.191,0,0.346-0.154,0.346-0.346c0-0.192-0.155-0.346-0.346-0.346
		C18.401,18.66,18.247,18.815,18.247,19.006z M20.514,17.534h-1.833v0.173h1.833V17.534z"/>
</g>
<g>
</g>
<g>
</g>
<g>
</g>
<g>
</g>
<g>
</g>
<g>
</g>
<g>
</g>
<g>
</g>
<g>
</g>
<g>
</g>
<g>
</g>
<g>
</g>
<g>
</g>
<g>
</g>
<g>
</g>
</svg>
