<?xml version="1.0" encoding="iso-8859-1"?>
<!-- Generator: Adobe Illustrator 16.0.0, SVG Export Plug-In . SVG Version: 6.00 Build 0)  -->
<!DOCTYPE svg PUBLIC "-//W3C//DTD SVG 1.1//EN" "http://www.w3.org/Graphics/SVG/1.1/DTD/svg11.dtd">
<svg version="1.1" id="Capa_1" xmlns="http://www.w3.org/2000/svg" xmlns:xlink="http://www.w3.org/1999/xlink" x="0px" y="0px"
	 width="42.205px" height="42.205px" viewBox="0 0 42.205 42.205" style="enable-background:new 0 0 42.205 42.205;"
	 xml:space="preserve">
<g>
	<g>
		<path d="M4.47,36.102c0.008,1.125-0.012,2.254-0.066,3.379h2.473c0,0,0.033-1.355,0.151-3.379H4.47z"/>
		<path d="M37.103,37.602c0,0,3.174-1.832,3.793-3.068c0,0-0.104-5.979-6.598-7.834c0,0-8.969-2.371-15.361-15.152
			c0,0-4.637-11.34-11.854-11.547c0,0-5.361,2.062-5.67,10.928c0,0,1.737,0.49,4.256,3c-1.409-0.799-2.945-1.11-4.359-0.217
			c0,0,2.842,10.104,3.139,21.059h2.664c0.338-4.834,1.124-12.069,2.91-15.182c2.725,4.432,5.678,11.076,8.193,21.029
			c0,0,7.836,3.504,20.928,0.102c0,0,1.648-2.062,1.648-3.709C40.792,37.008,39.062,37.705,37.103,37.602z M24.436,25.102
			C10.603,12.434,8.011,1.956,8.011,1.956c1.34,3.608,16.391,21.854,16.391,21.854c3.402,3.4,7.01,3.092,7.01,3.092
			C28.835,27.316,25.805,26.355,24.436,25.102z"/>
	</g>
</g>
<g>
</g>
<g>
</g>
<g>
</g>
<g>
</g>
<g>
</g>
<g>
</g>
<g>
</g>
<g>
</g>
<g>
</g>
<g>
</g>
<g>
</g>
<g>
</g>
<g>
</g>
<g>
</g>
<g>
</g>
</svg>
